solid OpenSCAD_Model
  facet normal 0.866025 0.5 0
    outer loop
      vertex 4.04145 0 -5.72205e-07
      vertex 2.02073 3.5 -3.2
      vertex 2.02073 3.5 -5.72205e-07
    endloop
  endfacet
  facet normal 0.866025 0.5 0
    outer loop
      vertex 2.02073 3.5 -3.2
      vertex 4.04145 0 -5.72205e-07
      vertex 4.04145 0 -3.2
    endloop
  endfacet
  facet normal -0.866025 0.5 0
    outer loop
      vertex -4.04145 0 -3.2
      vertex -2.02073 3.5 -5.72205e-07
      vertex -2.02073 3.5 -3.2
    endloop
  endfacet
  facet normal -0.866025 0.5 0
    outer loop
      vertex -2.02073 3.5 -5.72205e-07
      vertex -4.04145 0 -3.2
      vertex -4.04145 0 -5.72205e-07
    endloop
  endfacet
  facet normal 0 1 -0
    outer loop
      vertex 2.02073 3.5 -3.2
      vertex -2.02073 3.5 -5.72205e-07
      vertex 2.02073 3.5 -5.72205e-07
    endloop
  endfacet
  facet normal 0 1 0
    outer loop
      vertex -2.02073 3.5 -5.72205e-07
      vertex 2.02073 3.5 -3.2
      vertex -2.02073 3.5 -3.2
    endloop
  endfacet
  facet normal 0 0 1
    outer loop
      vertex 1.3 0 -5.72205e-07
      vertex 4.04145 0 -5.72205e-07
      vertex 2.02073 3.5 -5.72205e-07
    endloop
  endfacet
  facet normal 0 0 1
    outer loop
      vertex 4.04145 0 -5.72205e-07
      vertex 1.3 0 -5.72205e-07
      vertex 2.02073 -3.5 -5.72205e-07
    endloop
  endfacet
  facet normal 0 0 1
    outer loop
      vertex 2.02073 3.5 -5.72205e-07
      vertex 0.401722 1.23637 -5.72205e-07
      vertex 1.3 0 -5.72205e-07
    endloop
  endfacet
  facet normal -0 0 1
    outer loop
      vertex -2.02073 3.5 -5.72205e-07
      vertex 0.401722 1.23637 -5.72205e-07
      vertex 2.02073 3.5 -5.72205e-07
    endloop
  endfacet
  facet normal 0 0 1
    outer loop
      vertex -4.04145 0 -5.72205e-07
      vertex -1.05172 0.76412 -5.72205e-07
      vertex -2.02073 3.5 -5.72205e-07
    endloop
  endfacet
  facet normal 0 0 1
    outer loop
      vertex 0.401722 1.23637 -5.72205e-07
      vertex -2.02073 3.5 -5.72205e-07
      vertex -1.05172 0.76412 -5.72205e-07
    endloop
  endfacet
  facet normal -0 0 1
    outer loop
      vertex 0.401722 -1.23637 -5.72205e-07
      vertex 2.02073 -3.5 -5.72205e-07
      vertex 1.3 0 -5.72205e-07
    endloop
  endfacet
  facet normal 0 0 1
    outer loop
      vertex -2.02073 -3.5 -5.72205e-07
      vertex 0.401722 -1.23637 -5.72205e-07
      vertex -1.05172 -0.76412 -5.72205e-07
    endloop
  endfacet
  facet normal 0 0 1
    outer loop
      vertex 0.401722 -1.23637 -5.72205e-07
      vertex -2.02073 -3.5 -5.72205e-07
      vertex 2.02073 -3.5 -5.72205e-07
    endloop
  endfacet
  facet normal 0 0 1
    outer loop
      vertex -1.05172 0.76412 -5.72205e-07
      vertex -4.04145 0 -5.72205e-07
      vertex -1.05172 -0.76412 -5.72205e-07
    endloop
  endfacet
  facet normal 0 0 1
    outer loop
      vertex -1.05172 -0.76412 -5.72205e-07
      vertex -4.04145 0 -5.72205e-07
      vertex -2.02073 -3.5 -5.72205e-07
    endloop
  endfacet
  facet normal 0 0 -1
    outer loop
      vertex 1.3 0 -3.2
      vertex 4.04145 0 -3.2
      vertex 2.02073 -3.5 -3.2
    endloop
  endfacet
  facet normal 0 0 -1
    outer loop
      vertex 4.04145 0 -3.2
      vertex 1.3 0 -3.2
      vertex 2.02073 3.5 -3.2
    endloop
  endfacet
  facet normal 0 0 -1
    outer loop
      vertex 2.02073 -3.5 -3.2
      vertex 0.401722 -1.23637 -3.2
      vertex 1.3 0 -3.2
    endloop
  endfacet
  facet normal 0 0 -1
    outer loop
      vertex -2.02073 -3.5 -3.2
      vertex 0.401722 -1.23637 -3.2
      vertex 2.02073 -3.5 -3.2
    endloop
  endfacet
  facet normal 0 0 -1
    outer loop
      vertex -4.04145 0 -3.2
      vertex -1.05172 -0.76412 -3.2
      vertex -2.02073 -3.5 -3.2
    endloop
  endfacet
  facet normal -0 0 -1
    outer loop
      vertex 0.401722 -1.23637 -3.2
      vertex -2.02073 -3.5 -3.2
      vertex -1.05172 -0.76412 -3.2
    endloop
  endfacet
  facet normal 0 0 -1
    outer loop
      vertex 0.401722 1.23637 -3.2
      vertex 2.02073 3.5 -3.2
      vertex 1.3 0 -3.2
    endloop
  endfacet
  facet normal 0 0 -1
    outer loop
      vertex -2.02073 3.5 -3.2
      vertex 0.401722 1.23637 -3.2
      vertex -1.05172 0.76412 -3.2
    endloop
  endfacet
  facet normal 0 0 -1
    outer loop
      vertex 0.401722 1.23637 -3.2
      vertex -2.02073 3.5 -3.2
      vertex 2.02073 3.5 -3.2
    endloop
  endfacet
  facet normal 0 0 -1
    outer loop
      vertex -1.05172 -0.76412 -3.2
      vertex -4.04145 0 -3.2
      vertex -1.05172 0.76412 -3.2
    endloop
  endfacet
  facet normal -0 0 -1
    outer loop
      vertex -1.05172 0.76412 -3.2
      vertex -4.04145 0 -3.2
      vertex -2.02073 3.5 -3.2
    endloop
  endfacet
  facet normal 0.866025 -0.5 0
    outer loop
      vertex 2.02073 -3.5 -5.72205e-07
      vertex 4.04145 0 -3.2
      vertex 4.04145 0 -5.72205e-07
    endloop
  endfacet
  facet normal 0.866025 -0.5 0
    outer loop
      vertex 4.04145 0 -3.2
      vertex 2.02073 -3.5 -5.72205e-07
      vertex 2.02073 -3.5 -3.2
    endloop
  endfacet
  facet normal -0.866025 -0.5 0
    outer loop
      vertex -2.02073 -3.5 -3.2
      vertex -4.04145 0 -5.72205e-07
      vertex -4.04145 0 -3.2
    endloop
  endfacet
  facet normal -0.866025 -0.5 0
    outer loop
      vertex -4.04145 0 -5.72205e-07
      vertex -2.02073 -3.5 -3.2
      vertex -2.02073 -3.5 -5.72205e-07
    endloop
  endfacet
  facet normal -2.35973e-07 -1 0
    outer loop
      vertex -2.02073 -3.5 -3.2
      vertex 2.02073 -3.5 -5.72205e-07
      vertex -2.02073 -3.5 -5.72205e-07
    endloop
  endfacet
  facet normal -2.35973e-07 -1 -0
    outer loop
      vertex 2.02073 -3.5 -5.72205e-07
      vertex -2.02073 -3.5 -3.2
      vertex 2.02073 -3.5 -3.2
    endloop
  endfacet
  facet normal -0.809017 -0.587785 0
    outer loop
      vertex 1.3 0 -3.2
      vertex 0.401722 1.23637 -5.72205e-07
      vertex 0.401722 1.23637 -3.2
    endloop
  endfacet
  facet normal -0.809017 -0.587785 0
    outer loop
      vertex 0.401722 1.23637 -5.72205e-07
      vertex 1.3 0 -3.2
      vertex 1.3 0 -5.72205e-07
    endloop
  endfacet
  facet normal 1 -0 0
    outer loop
      vertex -1.05172 -0.76412 -5.72205e-07
      vertex -1.05172 0.76412 -3.2
      vertex -1.05172 0.76412 -5.72205e-07
    endloop
  endfacet
  facet normal 1 0 0
    outer loop
      vertex -1.05172 0.76412 -3.2
      vertex -1.05172 -0.76412 -5.72205e-07
      vertex -1.05172 -0.76412 -3.2
    endloop
  endfacet
  facet normal 0.309017 -0.951056 0
    outer loop
      vertex -1.05172 0.76412 -3.2
      vertex 0.401722 1.23637 -5.72205e-07
      vertex -1.05172 0.76412 -5.72205e-07
    endloop
  endfacet
  facet normal 0.309017 -0.951056 0
    outer loop
      vertex 0.401722 1.23637 -5.72205e-07
      vertex -1.05172 0.76412 -3.2
      vertex 0.401722 1.23637 -3.2
    endloop
  endfacet
  facet normal 0.309017 0.951056 -0
    outer loop
      vertex 0.401722 -1.23637 -3.2
      vertex -1.05172 -0.76412 -5.72205e-07
      vertex 0.401722 -1.23637 -5.72205e-07
    endloop
  endfacet
  facet normal 0.309017 0.951056 0
    outer loop
      vertex -1.05172 -0.76412 -5.72205e-07
      vertex 0.401722 -1.23637 -3.2
      vertex -1.05172 -0.76412 -3.2
    endloop
  endfacet
  facet normal -0.809017 0.587785 0
    outer loop
      vertex 0.401722 -1.23637 -3.2
      vertex 1.3 0 -5.72205e-07
      vertex 1.3 0 -3.2
    endloop
  endfacet
  facet normal -0.809017 0.587785 0
    outer loop
      vertex 1.3 0 -5.72205e-07
      vertex 0.401722 -1.23637 -3.2
      vertex 0.401722 -1.23637 -5.72205e-07
    endloop
  endfacet
  facet normal 0.984808 0.173648 0
    outer loop
      vertex 5.5 0 2
      vertex 5.16831 1.88111 0
      vertex 5.16831 1.88111 2
    endloop
  endfacet
  facet normal 0.984808 0.173648 0
    outer loop
      vertex 5.16831 1.88111 0
      vertex 5.5 0 2
      vertex 5.5 0 0
    endloop
  endfacet
  facet normal -0.984808 0.173648 0
    outer loop
      vertex -5.5 0 0
      vertex -5.16831 1.88111 2
      vertex -5.16831 1.88111 0
    endloop
  endfacet
  facet normal -0.984808 0.173648 0
    outer loop
      vertex -5.16831 1.88111 2
      vertex -5.5 0 0
      vertex -5.5 0 2
    endloop
  endfacet
  facet normal -0.984808 -0.173648 0
    outer loop
      vertex -5.16831 -1.88111 0
      vertex -5.5 0 2
      vertex -5.5 0 0
    endloop
  endfacet
  facet normal -0.984808 -0.173648 0
    outer loop
      vertex -5.5 0 2
      vertex -5.16831 -1.88111 0
      vertex -5.16831 -1.88111 2
    endloop
  endfacet
  facet normal 0 1 -0
    outer loop
      vertex 0.955065 5.41644 0
      vertex -0.955065 5.41644 2
      vertex 0.955065 5.41644 2
    endloop
  endfacet
  facet normal 0 1 0
    outer loop
      vertex -0.955065 5.41644 2
      vertex 0.955065 5.41644 0
      vertex -0.955065 5.41644 0
    endloop
  endfacet
  facet normal 0.642788 0.766044 -0
    outer loop
      vertex 4.21324 3.53533 0
      vertex 2.75 4.76314 2
      vertex 4.21324 3.53533 2
    endloop
  endfacet
  facet normal 0.642788 0.766044 0
    outer loop
      vertex 2.75 4.76314 2
      vertex 4.21324 3.53533 0
      vertex 2.75 4.76314 0
    endloop
  endfacet
  facet normal 0.866025 0.5 0
    outer loop
      vertex 5.16831 1.88111 2
      vertex 4.21324 3.53533 0
      vertex 4.21324 3.53533 2
    endloop
  endfacet
  facet normal 0.866025 0.5 0
    outer loop
      vertex 4.21324 3.53533 0
      vertex 5.16831 1.88111 2
      vertex 5.16831 1.88111 0
    endloop
  endfacet
  facet normal 0.34202 0.939693 -0
    outer loop
      vertex 2.75 4.76314 0
      vertex 0.955065 5.41644 2
      vertex 2.75 4.76314 2
    endloop
  endfacet
  facet normal 0.34202 0.939693 0
    outer loop
      vertex 0.955065 5.41644 2
      vertex 2.75 4.76314 0
      vertex 0.955065 5.41644 0
    endloop
  endfacet
  facet normal -0.34202 0.939693 0
    outer loop
      vertex -0.955065 5.41644 0
      vertex -2.75 4.76314 2
      vertex -0.955065 5.41644 2
    endloop
  endfacet
  facet normal -0.34202 0.939693 0
    outer loop
      vertex -2.75 4.76314 2
      vertex -0.955065 5.41644 0
      vertex -2.75 4.76314 0
    endloop
  endfacet
  facet normal -0.866025 0.5 0
    outer loop
      vertex -5.16831 1.88111 0
      vertex -4.21324 3.53533 2
      vertex -4.21324 3.53533 0
    endloop
  endfacet
  facet normal -0.866025 0.5 0
    outer loop
      vertex -4.21324 3.53533 2
      vertex -5.16831 1.88111 0
      vertex -5.16831 1.88111 2
    endloop
  endfacet
  facet normal -0.642787 0.766045 0
    outer loop
      vertex -2.75 4.76314 0
      vertex -4.21324 3.53533 2
      vertex -2.75 4.76314 2
    endloop
  endfacet
  facet normal -0.642787 0.766045 0
    outer loop
      vertex -4.21324 3.53533 2
      vertex -2.75 4.76314 0
      vertex -4.21324 3.53533 0
    endloop
  endfacet
  facet normal -0 0 1
    outer loop
      vertex 4.5 1 2
      vertex 5.5 0 2
      vertex 5.16831 1.88111 2
    endloop
  endfacet
  facet normal 0 0 1
    outer loop
      vertex 4.5 -1 2
      vertex 5.5 0 2
      vertex 4.5 1 2
    endloop
  endfacet
  facet normal 0 0 1
    outer loop
      vertex 4.21324 3.53533 2
      vertex 4.5 1 2
      vertex 5.16831 1.88111 2
    endloop
  endfacet
  facet normal 0 0 1
    outer loop
      vertex 1.24698 1.56366 2
      vertex 4.21324 3.53533 2
      vertex 2.75 4.76314 2
    endloop
  endfacet
  facet normal 0 0 1
    outer loop
      vertex 4.21324 3.53533 2
      vertex 1.24698 1.56366 2
      vertex 4.5 1 2
    endloop
  endfacet
  facet normal 0 0 1
    outer loop
      vertex 4.5 1 2
      vertex 1.24698 1.56366 2
      vertex 1.51842 1 2
    endloop
  endfacet
  facet normal 0 0 1
    outer loop
      vertex 0.955065 5.41644 2
      vertex 1.24698 1.56366 2
      vertex 2.75 4.76314 2
    endloop
  endfacet
  facet normal 0 0 1
    outer loop
      vertex 0.955065 5.41644 2
      vertex -0.445042 1.94986 2
      vertex 1.24698 1.56366 2
    endloop
  endfacet
  facet normal -0 0 1
    outer loop
      vertex -0.955065 5.41644 2
      vertex -0.445042 1.94986 2
      vertex 0.955065 5.41644 2
    endloop
  endfacet
  facet normal -0 0 1
    outer loop
      vertex -2.75 4.76314 2
      vertex -0.445042 1.94986 2
      vertex -0.955065 5.41644 2
    endloop
  endfacet
  facet normal 0 0 1
    outer loop
      vertex -0.445042 1.94986 2
      vertex -2.75 4.76314 2
      vertex -1.63612 1 2
    endloop
  endfacet
  facet normal -0 0 1
    outer loop
      vertex -4.21324 3.53533 2
      vertex -1.63612 1 2
      vertex -2.75 4.76314 2
    endloop
  endfacet
  facet normal 0 0 1
    outer loop
      vertex -4.21324 3.53533 2
      vertex -4.5 1 2
      vertex -1.63612 1 2
    endloop
  endfacet
  facet normal 0 0 1
    outer loop
      vertex -5.5 0 2
      vertex -4.5 1 2
      vertex -5.16831 1.88111 2
    endloop
  endfacet
  facet normal -0 0 1
    outer loop
      vertex -5.16831 1.88111 2
      vertex -4.5 1 2
      vertex -4.21324 3.53533 2
    endloop
  endfacet
  facet normal 0 0 1
    outer loop
      vertex 5.5 0 2
      vertex 4.5 -1 2
      vertex 5.16831 -1.88111 2
    endloop
  endfacet
  facet normal 0 0 1
    outer loop
      vertex 4.5 -1 2
      vertex 4.21324 -3.53533 2
      vertex 5.16831 -1.88111 2
    endloop
  endfacet
  facet normal -0 0 1
    outer loop
      vertex 1.24698 -1.56366 2
      vertex 4.21324 -3.53533 2
      vertex 4.5 -1 2
    endloop
  endfacet
  facet normal 0 0 1
    outer loop
      vertex 1.24698 -1.56366 2
      vertex 4.5 -1 2
      vertex 1.51842 -1 2
    endloop
  endfacet
  facet normal 0 0 1
    outer loop
      vertex 4.21324 -3.53533 2
      vertex 1.24698 -1.56366 2
      vertex 2.75 -4.76314 2
    endloop
  endfacet
  facet normal 0 0 1
    outer loop
      vertex 1.24698 -1.56366 2
      vertex 0.955065 -5.41644 2
      vertex 2.75 -4.76314 2
    endloop
  endfacet
  facet normal -0 0 1
    outer loop
      vertex -0.445042 -1.94986 2
      vertex 0.955065 -5.41644 2
      vertex 1.24698 -1.56366 2
    endloop
  endfacet
  facet normal 0 0 1
    outer loop
      vertex -0.445042 -1.94986 2
      vertex -0.955065 -5.41644 2
      vertex 0.955065 -5.41644 2
    endloop
  endfacet
  facet normal 0 0 1
    outer loop
      vertex -2.75 -4.76314 2
      vertex -0.445042 -1.94986 2
      vertex -1.63612 -1 2
    endloop
  endfacet
  facet normal 0 0 1
    outer loop
      vertex -0.445042 -1.94986 2
      vertex -2.75 -4.76314 2
      vertex -0.955065 -5.41644 2
    endloop
  endfacet
  facet normal 0 0 1
    outer loop
      vertex -1.63612 -1 2
      vertex -4.21324 -3.53533 2
      vertex -2.75 -4.76314 2
    endloop
  endfacet
  facet normal -0 0 1
    outer loop
      vertex -4.5 -1 2
      vertex -4.21324 -3.53533 2
      vertex -1.63612 -1 2
    endloop
  endfacet
  facet normal 0 0 1
    outer loop
      vertex -4.5 1 2
      vertex -5.5 0 2
      vertex -4.5 -1 2
    endloop
  endfacet
  facet normal 0 0 1
    outer loop
      vertex -4.5 -1 2
      vertex -5.16831 -1.88111 2
      vertex -4.21324 -3.53533 2
    endloop
  endfacet
  facet normal 0 0 1
    outer loop
      vertex -4.5 -1 2
      vertex -5.5 0 2
      vertex -5.16831 -1.88111 2
    endloop
  endfacet
  facet normal 0.34202 -0.939693 0
    outer loop
      vertex 0.955065 -5.41644 0
      vertex 2.75 -4.76314 2
      vertex 0.955065 -5.41644 2
    endloop
  endfacet
  facet normal 0.34202 -0.939693 0
    outer loop
      vertex 2.75 -4.76314 2
      vertex 0.955065 -5.41644 0
      vertex 2.75 -4.76314 0
    endloop
  endfacet
  facet normal 0.984808 -0.173648 0
    outer loop
      vertex 5.16831 -1.88111 2
      vertex 5.5 0 0
      vertex 5.5 0 2
    endloop
  endfacet
  facet normal 0.984808 -0.173648 0
    outer loop
      vertex 5.5 0 0
      vertex 5.16831 -1.88111 2
      vertex 5.16831 -1.88111 0
    endloop
  endfacet
  facet normal -0.866025 -0.5 0
    outer loop
      vertex -4.21324 -3.53533 0
      vertex -5.16831 -1.88111 2
      vertex -5.16831 -1.88111 0
    endloop
  endfacet
  facet normal -0.866025 -0.5 0
    outer loop
      vertex -5.16831 -1.88111 2
      vertex -4.21324 -3.53533 0
      vertex -4.21324 -3.53533 2
    endloop
  endfacet
  facet normal 0.642788 -0.766044 0
    outer loop
      vertex 2.75 -4.76314 0
      vertex 4.21324 -3.53533 2
      vertex 2.75 -4.76314 2
    endloop
  endfacet
  facet normal 0.642788 -0.766044 0
    outer loop
      vertex 4.21324 -3.53533 2
      vertex 2.75 -4.76314 0
      vertex 4.21324 -3.53533 0
    endloop
  endfacet
  facet normal 0.866025 -0.5 0
    outer loop
      vertex 4.21324 -3.53533 2
      vertex 5.16831 -1.88111 0
      vertex 5.16831 -1.88111 2
    endloop
  endfacet
  facet normal 0.866025 -0.5 0
    outer loop
      vertex 5.16831 -1.88111 0
      vertex 4.21324 -3.53533 2
      vertex 4.21324 -3.53533 0
    endloop
  endfacet
  facet normal 0 -1 0
    outer loop
      vertex -0.955065 -5.41644 0
      vertex 0.955065 -5.41644 2
      vertex -0.955065 -5.41644 2
    endloop
  endfacet
  facet normal 0 -1 -0
    outer loop
      vertex 0.955065 -5.41644 2
      vertex -0.955065 -5.41644 0
      vertex 0.955065 -5.41644 0
    endloop
  endfacet
  facet normal -0.34202 -0.939693 0
    outer loop
      vertex -2.75 -4.76314 0
      vertex -0.955065 -5.41644 2
      vertex -2.75 -4.76314 2
    endloop
  endfacet
  facet normal -0.34202 -0.939693 -0
    outer loop
      vertex -0.955065 -5.41644 2
      vertex -2.75 -4.76314 0
      vertex -0.955065 -5.41644 0
    endloop
  endfacet
  facet normal 0 0 -1
    outer loop
      vertex 5.16831 -1.88111 0
      vertex 5.16831 1.88111 0
      vertex 5.5 0 0
    endloop
  endfacet
  facet normal 0 0 -1
    outer loop
      vertex 4.21324 -3.53533 0
      vertex 5.16831 1.88111 0
      vertex 5.16831 -1.88111 0
    endloop
  endfacet
  facet normal 0 0 -1
    outer loop
      vertex 4.21324 -3.53533 0
      vertex 4.21324 3.53533 0
      vertex 5.16831 1.88111 0
    endloop
  endfacet
  facet normal 0 0 -1
    outer loop
      vertex 2.75 -4.76314 0
      vertex 4.21324 3.53533 0
      vertex 4.21324 -3.53533 0
    endloop
  endfacet
  facet normal 0 0 -1
    outer loop
      vertex 2.75 -4.76314 0
      vertex 2.75 4.76314 0
      vertex 4.21324 3.53533 0
    endloop
  endfacet
  facet normal 0 0 -1
    outer loop
      vertex 0.955065 -5.41644 0
      vertex 2.75 4.76314 0
      vertex 2.75 -4.76314 0
    endloop
  endfacet
  facet normal 0 0 -1
    outer loop
      vertex 0.955065 -5.41644 0
      vertex 0.955065 5.41644 0
      vertex 2.75 4.76314 0
    endloop
  endfacet
  facet normal 0 0 -1
    outer loop
      vertex -0.955065 -5.41644 0
      vertex 0.955065 5.41644 0
      vertex 0.955065 -5.41644 0
    endloop
  endfacet
  facet normal 0 0 -1
    outer loop
      vertex -0.955065 -5.41644 0
      vertex -0.955065 5.41644 0
      vertex 0.955065 5.41644 0
    endloop
  endfacet
  facet normal 0 0 -1
    outer loop
      vertex -0.955065 -5.41644 0
      vertex -2.75 4.76314 0
      vertex -0.955065 5.41644 0
    endloop
  endfacet
  facet normal 0 0 -1
    outer loop
      vertex -2.75 -4.76314 0
      vertex -2.75 4.76314 0
      vertex -0.955065 -5.41644 0
    endloop
  endfacet
  facet normal 0 0 -1
    outer loop
      vertex -4.21324 -3.53533 0
      vertex -2.75 4.76314 0
      vertex -2.75 -4.76314 0
    endloop
  endfacet
  facet normal 0 0 -1
    outer loop
      vertex -4.21324 -3.53533 0
      vertex -4.21324 3.53533 0
      vertex -2.75 4.76314 0
    endloop
  endfacet
  facet normal 0 0 -1
    outer loop
      vertex -5.16831 -1.88111 0
      vertex -4.21324 3.53533 0
      vertex -4.21324 -3.53533 0
    endloop
  endfacet
  facet normal 0 0 -1
    outer loop
      vertex -5.16831 -1.88111 0
      vertex -5.16831 1.88111 0
      vertex -4.21324 3.53533 0
    endloop
  endfacet
  facet normal 0 -0 -1
    outer loop
      vertex -5.16831 1.88111 0
      vertex -5.16831 -1.88111 0
      vertex -5.5 0 0
    endloop
  endfacet
  facet normal -0.642788 -0.766044 0
    outer loop
      vertex -4.21324 -3.53533 0
      vertex -2.75 -4.76314 2
      vertex -4.21324 -3.53533 2
    endloop
  endfacet
  facet normal -0.642788 -0.766044 -0
    outer loop
      vertex -2.75 -4.76314 2
      vertex -4.21324 -3.53533 0
      vertex -2.75 -4.76314 0
    endloop
  endfacet
  facet normal 0.900969 0.433884 0
    outer loop
      vertex 1.24698 1.56366 5
      vertex 1.51842 1 4.5
      vertex 1.24698 1.56366 2
    endloop
  endfacet
  facet normal 0.900969 0.433884 7.59896e-08
    outer loop
      vertex 2 0 5
      vertex 1.51842 1 4.5
      vertex 1.24698 1.56366 5
    endloop
  endfacet
  facet normal 0.900969 0.433884 0
    outer loop
      vertex 1.51842 1 4.5
      vertex 2 0 5
      vertex 2 0 4.5
    endloop
  endfacet
  facet normal 0.900969 0.433884 0
    outer loop
      vertex 1.24698 1.56366 2
      vertex 1.51842 1 4.5
      vertex 1.51842 1 2
    endloop
  endfacet
  facet normal -1 0 0
    outer loop
      vertex -1.80194 -0.867767 4.5
      vertex -1.80194 0.867767 5
      vertex -1.80194 0.867767 4.5
    endloop
  endfacet
  facet normal -1 -0 0
    outer loop
      vertex -1.80194 0.867767 5
      vertex -1.80194 -0.867767 4.5
      vertex -1.80194 -0.867767 5
    endloop
  endfacet
  facet normal 0.222521 0.974928 -0
    outer loop
      vertex 1.24698 1.56366 2
      vertex -0.445042 1.94986 5
      vertex 1.24698 1.56366 5
    endloop
  endfacet
  facet normal 0.222521 0.974928 0
    outer loop
      vertex -0.445042 1.94986 5
      vertex 1.24698 1.56366 2
      vertex -0.445042 1.94986 2
    endloop
  endfacet
  facet normal -0.62349 -0.781831 0
    outer loop
      vertex -1.63612 -1 4.5
      vertex -1.80194 -0.867767 5
      vertex -1.80194 -0.867767 4.5
    endloop
  endfacet
  facet normal -0.62349 -0.781831 6.0223e-08
    outer loop
      vertex -1.80194 -0.867767 5
      vertex -1.63612 -1 4.5
      vertex -0.445042 -1.94986 5
    endloop
  endfacet
  facet normal -0.62349 -0.781831 0
    outer loop
      vertex -0.445042 -1.94986 2
      vertex -1.63612 -1 4.5
      vertex -1.63612 -1 2
    endloop
  endfacet
  facet normal -0.62349 -0.781831 0
    outer loop
      vertex -1.63612 -1 4.5
      vertex -0.445042 -1.94986 2
      vertex -0.445042 -1.94986 5
    endloop
  endfacet
  facet normal 0 0 1
    outer loop
      vertex 1.24698 1.56366 5
      vertex 1.24698 -1.56366 5
      vertex 2 0 5
    endloop
  endfacet
  facet normal 0 0 1
    outer loop
      vertex -0.445042 1.94986 5
      vertex 1.24698 -1.56366 5
      vertex 1.24698 1.56366 5
    endloop
  endfacet
  facet normal 0 0 1
    outer loop
      vertex -0.445042 1.94986 5
      vertex -0.445042 -1.94986 5
      vertex 1.24698 -1.56366 5
    endloop
  endfacet
  facet normal -0 0 1
    outer loop
      vertex -1.80194 0.867767 5
      vertex -0.445042 -1.94986 5
      vertex -0.445042 1.94986 5
    endloop
  endfacet
  facet normal 0 0 1
    outer loop
      vertex -0.445042 -1.94986 5
      vertex -1.80194 0.867767 5
      vertex -1.80194 -0.867767 5
    endloop
  endfacet
  facet normal -0.62349 0.781831 6.0223e-08
    outer loop
      vertex -0.445042 1.94986 5
      vertex -1.63612 1 4.5
      vertex -1.80194 0.867767 5
    endloop
  endfacet
  facet normal -0.62349 0.781831 0
    outer loop
      vertex -0.445042 1.94986 2
      vertex -1.63612 1 4.5
      vertex -0.445042 1.94986 5
    endloop
  endfacet
  facet normal -0.62349 0.781831 0
    outer loop
      vertex -1.63612 1 4.5
      vertex -0.445042 1.94986 2
      vertex -1.63612 1 2
    endloop
  endfacet
  facet normal -0.62349 0.781831 0
    outer loop
      vertex -1.80194 0.867767 5
      vertex -1.63612 1 4.5
      vertex -1.80194 0.867767 4.5
    endloop
  endfacet
  facet normal 0.900969 -0.433884 0
    outer loop
      vertex 2 0 5
      vertex 1.51842 -1 4.5
      vertex 2 0 4.5
    endloop
  endfacet
  facet normal 0.900969 -0.433884 7.59896e-08
    outer loop
      vertex 1.24698 -1.56366 5
      vertex 1.51842 -1 4.5
      vertex 2 0 5
    endloop
  endfacet
  facet normal 0.900969 -0.433884 0
    outer loop
      vertex 1.24698 -1.56366 2
      vertex 1.51842 -1 4.5
      vertex 1.24698 -1.56366 5
    endloop
  endfacet
  facet normal 0.900969 -0.433884 0
    outer loop
      vertex 1.51842 -1 4.5
      vertex 1.24698 -1.56366 2
      vertex 1.51842 -1 2
    endloop
  endfacet
  facet normal 0.222521 -0.974928 0
    outer loop
      vertex -0.445042 -1.94986 2
      vertex 1.24698 -1.56366 5
      vertex -0.445042 -1.94986 5
    endloop
  endfacet
  facet normal 0.222521 -0.974928 0
    outer loop
      vertex 1.24698 -1.56366 5
      vertex -0.445042 -1.94986 2
      vertex 1.24698 -1.56366 2
    endloop
  endfacet
  facet normal -1 0 0
    outer loop
      vertex -4.5 -1 2
      vertex -4.5 1 4.5
      vertex -4.5 1 2
    endloop
  endfacet
  facet normal -1 -0 0
    outer loop
      vertex -4.5 1 4.5
      vertex -4.5 -1 2
      vertex -4.5 -1 4.5
    endloop
  endfacet
  facet normal 0 0 1
    outer loop
      vertex -1.80194 0.867767 4.5
      vertex -4.5 1 4.5
      vertex -1.80194 -0.867767 4.5
    endloop
  endfacet
  facet normal -0 0 1
    outer loop
      vertex -4.5 1 4.5
      vertex -1.80194 0.867767 4.5
      vertex -1.63612 1 4.5
    endloop
  endfacet
  facet normal 0 0 1
    outer loop
      vertex -4.5 -1 4.5
      vertex -1.80194 -0.867767 4.5
      vertex -4.5 1 4.5
    endloop
  endfacet
  facet normal 0 0 1
    outer loop
      vertex -1.80194 -0.867767 4.5
      vertex -4.5 -1 4.5
      vertex -1.63612 -1 4.5
    endloop
  endfacet
  facet normal 0 0 1
    outer loop
      vertex 4.5 1 4.5
      vertex 2 0 4.5
      vertex 4.5 -1 4.5
    endloop
  endfacet
  facet normal 0 -0 1
    outer loop
      vertex 2 0 4.5
      vertex 4.5 1 4.5
      vertex 1.51842 1 4.5
    endloop
  endfacet
  facet normal 0 0 1
    outer loop
      vertex 4.5 -1 4.5
      vertex 2 0 4.5
      vertex 1.51842 -1 4.5
    endloop
  endfacet
  facet normal 1 -0 0
    outer loop
      vertex 4.5 -1 4.5
      vertex 4.5 1 2
      vertex 4.5 1 4.5
    endloop
  endfacet
  facet normal 1 0 0
    outer loop
      vertex 4.5 1 2
      vertex 4.5 -1 4.5
      vertex 4.5 -1 2
    endloop
  endfacet
  facet normal 0 -1 0
    outer loop
      vertex -4.5 -1 2
      vertex -1.63612 -1 4.5
      vertex -4.5 -1 4.5
    endloop
  endfacet
  facet normal 0 -1 -0
    outer loop
      vertex -1.63612 -1 4.5
      vertex -4.5 -1 2
      vertex -1.63612 -1 2
    endloop
  endfacet
  facet normal 0 -1 0
    outer loop
      vertex 1.51842 -1 2
      vertex 4.5 -1 4.5
      vertex 1.51842 -1 4.5
    endloop
  endfacet
  facet normal 0 -1 -0
    outer loop
      vertex 4.5 -1 4.5
      vertex 1.51842 -1 2
      vertex 4.5 -1 2
    endloop
  endfacet
  facet normal 0 1 -0
    outer loop
      vertex 4.5 1 2
      vertex 1.51842 1 4.5
      vertex 4.5 1 4.5
    endloop
  endfacet
  facet normal 0 1 0
    outer loop
      vertex 1.51842 1 4.5
      vertex 4.5 1 2
      vertex 1.51842 1 2
    endloop
  endfacet
  facet normal 0 1 -0
    outer loop
      vertex -1.63612 1 2
      vertex -4.5 1 4.5
      vertex -1.63612 1 4.5
    endloop
  endfacet
  facet normal 0 1 0
    outer loop
      vertex -4.5 1 4.5
      vertex -1.63612 1 2
      vertex -4.5 1 2
    endloop
  endfacet
endsolid OpenSCAD_Model
